# xmcd
#
# Track frame offsets:
#	150
#	12160
#	24155
#	38287
#	53490
#	66035
#	78195
#	91340
#	102292
#	118392
#	132790
#	146772
#	161742
#	175175
#	188957
#
# Disc length: 2767 seconds
#
# Revision: 1
# Processed by: cddbd v1.5.2PL0 Copyright (c) Steve Scherf et al.
# Submitted via: audiograbber 1.83.01
#
DISCID=b70acd0f
DTITLE=8365 - SC Desperados Vol. 1
DYEAR=1900
DGENRE=Karaoke
TTITLE0=Waylon Jennings - Dukes Of Hazzard Theme
TTITLE1=Waylon Jennings - Only Daddy That'll Walk The Line
TTITLE2=Merle Haggard - Swinging Doors
TTITLE3=Merle Haggard - Branded Man
TTITLE4=George Jones - Tender Years
TTITLE5=George Jones - Why Baby Why
TTITLE6=Merle Haggard - I Take A Lot Of Pride In That
TTITLE7=Waylon Jennings - Wurlitzer Prize
TTITLE8=George Jones - Who's Gonna Fill Their Shoes
TTITLE9=George Jones - Window Up Above, The
TTITLE10=George Jones - Still Doin' Time
TTITLE11=Merle Haggard - Fugitive, The
TTITLE12=Waylon Jennings - Rainy Day Woman
TTITLE13=Merle Haggard - Sing Me Back Home
TTITLE14=Waylon Jennings - Lucille (Daddy's Will)
EXTD=Correcting ALL CAPS prior listing for sane zipped file classifications...
EXTT0=
EXTT1=
EXTT2=
EXTT3=
EXTT4=
EXTT5=
EXTT6=
EXTT7=
EXTT8=
EXTT9=
EXTT10=
EXTT11=
EXTT12=
EXTT13=
EXTT14=
PLAYORDER=
